<svg t="1561613796641" class="icon" viewBox="0 0 1024 1024" version="1.1" xmlns="http://www.w3.org/2000/svg" p-id="9456" width="200" height="200"><path d="M19.2 512c0 272 220.8 492.8 492.8 492.8S1004.8 784 1004.8 512 784 19.2 512 19.2 19.2 240 19.2 512z" fill="#F7BA2A" p-id="9457"></path><path d="M377.6 355.2c-6.4-12.8-16-32-28.8-48-12.8-19.2-22.4-25.6-32-28.8-19.2-3.2-51.2 19.2-73.6 41.6-12.8 12.8-44.8 48-51.2 86.4-6.4 35.2 12.8 83.2 25.6 118.4 19.2 48 51.2 99.2 83.2 144l9.6 16c35.2 44.8 76.8 89.6 115.2 121.6 28.8 25.6 70.4 54.4 105.6 57.6 38.4 6.4 80-16 96-25.6 25.6-16 57.6-38.4 60.8-57.6 0-9.6-3.2-22.4-16-38.4s-28.8-32-38.4-41.6c-12.8-12.8-28.8-25.6-44.8-38.4-22.4-16-32-19.2-38.4-19.2-9.6 0-19.2 3.2-28.8 12.8-6.4 6.4-12.8 16-16 22.4-3.2 6.4-9.6 16-12.8 19.2h-3.2c-3.2 0-16-6.4-38.4-28.8-19.2-16-38.4-38.4-54.4-57.6-16-22.4-28.8-44.8-41.6-70.4-12.8-28.8-16-41.6-16-44.8v-3.2h3.2c3.2-3.2 16-6.4 22.4-6.4l28.8-9.6c12.8-6.4 19.2-12.8 19.2-25.6 0-6.4 0-16-9.6-41.6-6.4-19.2-16-35.2-25.6-54.4zM384 448s-3.2 3.2-9.6 6.4c-6.4 3.2-12.8 3.2-19.2 6.4-9.6 3.2-16 3.2-25.6 9.6-9.6 3.2-16 9.6-16 19.2 0 6.4-3.2 19.2 19.2 64 12.8 25.6 28.8 51.2 44.8 73.6 16 19.2 38.4 44.8 57.6 64 35.2 32 51.2 35.2 54.4 35.2 9.6 0 19.2-3.2 25.6-12.8 6.4-6.4 9.6-12.8 12.8-19.2 3.2-6.4 6.4-12.8 12.8-19.2l6.4-6.4c3.2 0 9.6 3.2 25.6 12.8 12.8 9.6 25.6 19.2 38.4 32 35.2 32 48 54.4 51.2 60.8 0 0-3.2 6.4-12.8 16-9.6 6.4-22.4 16-35.2 22.4-28.8 16-60.8 22.4-80 22.4-22.4-3.2-54.4-22.4-92.8-54.4s-76.8-73.6-112-118.4l-9.6-16c-32-44.8-60.8-96-80-140.8-19.2-44.8-28.8-80-25.6-102.4 3.2-19.2 19.2-44.8 41.6-70.4 9.6-9.6 19.2-19.2 32-25.6 9.6-6.4 16-9.6 19.2-9.6 6.4 3.2 22.4 22.4 44.8 64 9.6 16 16 32 19.2 48 12.8 25.6 12.8 35.2 12.8 38.4z" fill="#FFFFFF" p-id="9458"></path><path d="M681.6 547.2v-73.6c-102.4-22.4-166.4 99.2-182.4 134.4 0-246.4 182.4-236.8 182.4-236.8V300.8l163.2 124.8-163.2 121.6z" fill="#FFFFFF" p-id="9459"></path></svg>