<svg t="1561613720630" class="icon" viewBox="0 0 1024 1024" version="1.1" xmlns="http://www.w3.org/2000/svg" p-id="7142" width="200" height="200"><path d="M512 512m-512 0a512 512 0 1 0 1024 0 512 512 0 1 0-1024 0Z" fill="#55C963" p-id="7143"></path><path d="M444.353939 470.574545l27.461819-23.893333c14.584242-12.567273-11.015758-71.524848-22.186667-95.26303a44.993939 44.993939 0 0 0-22.49697-22.807273 48.562424 48.562424 0 0 0-50.734545 8.067879l-27.461818 23.893333-2.172122 2.327273c-12.25697 13.187879-65.784242 86.109091 68.887273 241.260606l2.01697 2.327273c151.272727 172.838788 232.727273 103.796364 233.658182 102.555151l27.461818-23.893333a48.562424 48.562424 0 0 0 15.515151-49.18303 44.993939 44.993939 0 0 0-19.393939-25.444849c-21.876364-14.429091-76.644848-48.09697-91.229091-35.374545l-27.927273 23.738181a36.460606 36.460606 0 0 1-51.355151-3.568484l-63.612121-73.386667a36.460606 36.460606 0 0 1 3.568484-51.355152z" fill="#FFFFFF" p-id="7144"></path></svg>